<mxfile host="65bd71144e">
    <diagram id="8shZ4EIX03LEFK1IlQit" name="Page-1">
        <mxGraphModel dx="1132" dy="1515" grid="1" gridSize="10" guides="1" tooltips="1" connect="1" arrows="1" fold="1" page="1" pageScale="1" pageWidth="850" pageHeight="1100" math="0" shadow="0">
            <root>
                <mxCell id="0"/>
                <mxCell id="1" parent="0"/>
                <mxCell id="6" value="Packet Header" style="rounded=0;whiteSpace=wrap;html=1;fontSize=20;verticalAlign=top;fillColor=#a20025;fontColor=#FFFFFF;strokeColor=#000000;" vertex="1" parent="1">
                    <mxGeometry x="50" y="20" width="410" height="170" as="geometry"/>
                </mxCell>
                <mxCell id="2" value="16 bits" style="rounded=0;whiteSpace=wrap;html=1;fontSize=18;fillColor=#e51400;fontColor=#FFFFFF;strokeColor=#000000;" vertex="1" parent="1">
                    <mxGeometry x="80" y="80" width="160" height="40" as="geometry"/>
                </mxCell>
                <mxCell id="3" value="13 bits" style="rounded=0;whiteSpace=wrap;html=1;fontSize=18;fillColor=#e51400;fontColor=#FFFFFF;strokeColor=#000000;" vertex="1" parent="1">
                    <mxGeometry x="300" y="80" width="130" height="40" as="geometry"/>
                </mxCell>
                <mxCell id="4" value="Fragment Identifier" style="text;html=1;strokeColor=none;fillColor=none;align=center;verticalAlign=middle;whiteSpace=wrap;rounded=0;fontSize=16;fontStyle=1;fontColor=#FFFFFF;" vertex="1" parent="1">
                    <mxGeometry x="80" y="50" width="160" height="30" as="geometry"/>
                </mxCell>
                <mxCell id="5" value="Fragment offset" style="text;html=1;strokeColor=none;fillColor=none;align=center;verticalAlign=middle;whiteSpace=wrap;rounded=0;fontSize=16;fontStyle=1;fontColor=#FFFFFF;" vertex="1" parent="1">
                    <mxGeometry x="300" y="50" width="130" height="30" as="geometry"/>
                </mxCell>
                <mxCell id="8" value="..." style="text;html=1;strokeColor=none;fillColor=none;align=center;verticalAlign=middle;whiteSpace=wrap;rounded=0;fontSize=30;fontStyle=1;fontColor=#FFFFFF;" vertex="1" parent="1">
                    <mxGeometry x="420" y="80" width="50" height="30" as="geometry"/>
                </mxCell>
                <mxCell id="9" value="..." style="text;html=1;strokeColor=none;fillColor=none;align=center;verticalAlign=middle;whiteSpace=wrap;rounded=0;fontSize=30;fontStyle=1;fontColor=#FFFFFF;" vertex="1" parent="1">
                    <mxGeometry x="40" y="80" width="50" height="30" as="geometry"/>
                </mxCell>
                <mxCell id="10" value="x&lt;br style=&quot;font-size: 15px;&quot;&gt;bit" style="rounded=0;whiteSpace=wrap;html=1;fontSize=15;fillColor=#e51400;fontColor=#FFFFFF;strokeColor=#000000;" vertex="1" parent="1">
                    <mxGeometry x="240" y="80" width="20" height="40" as="geometry"/>
                </mxCell>
                <mxCell id="11" value="D&lt;br style=&quot;font-size: 15px;&quot;&gt;bit" style="rounded=0;whiteSpace=wrap;html=1;fontSize=15;fillColor=#e51400;fontColor=#FFFFFF;strokeColor=#000000;" vertex="1" parent="1">
                    <mxGeometry x="260" y="80" width="20" height="40" as="geometry"/>
                </mxCell>
                <mxCell id="12" value="M&lt;br style=&quot;font-size: 15px;&quot;&gt;bit" style="rounded=0;whiteSpace=wrap;html=1;fontSize=15;fillColor=#e51400;fontColor=#FFFFFF;strokeColor=#000000;" vertex="1" parent="1">
                    <mxGeometry x="280" y="80" width="20" height="40" as="geometry"/>
                </mxCell>
                <mxCell id="14" style="edgeStyle=orthogonalEdgeStyle;html=1;exitX=0;exitY=0.5;exitDx=0;exitDy=0;entryX=0.5;entryY=1;entryDx=0;entryDy=0;fontSize=30;endArrow=open;endFill=0;endSize=14;" edge="1" parent="1" source="13" target="12">
                    <mxGeometry relative="1" as="geometry"/>
                </mxCell>
                <mxCell id="13" value="More fragments to come" style="text;html=1;strokeColor=none;fillColor=none;align=center;verticalAlign=middle;whiteSpace=wrap;rounded=0;fontSize=16;fontStyle=1;fontColor=#FFFFFF;" vertex="1" parent="1">
                    <mxGeometry x="310" y="150" width="130" height="30" as="geometry"/>
                </mxCell>
                <mxCell id="16" style="edgeStyle=orthogonalEdgeStyle;html=1;exitX=1;exitY=0.5;exitDx=0;exitDy=0;entryX=0.5;entryY=1;entryDx=0;entryDy=0;fontSize=30;endArrow=open;endFill=0;endSize=14;" edge="1" parent="1" source="15" target="11">
                    <mxGeometry relative="1" as="geometry"/>
                </mxCell>
                <mxCell id="15" value="Do not &lt;br&gt;fragment" style="text;html=1;strokeColor=none;fillColor=none;align=center;verticalAlign=middle;whiteSpace=wrap;rounded=0;fontSize=16;fontStyle=1;fontColor=#FFFFFF;" vertex="1" parent="1">
                    <mxGeometry x="160" y="150" width="80" height="30" as="geometry"/>
                </mxCell>
                <mxCell id="17" value="" style="rounded=0;whiteSpace=wrap;html=1;fontSize=15;fontColor=#ffffff;strokeColor=#000000;fillColor=#e51400;" vertex="1" parent="1">
                    <mxGeometry x="640" y="50" width="40" height="60" as="geometry"/>
                </mxCell>
                <mxCell id="28" style="edgeStyle=orthogonalEdgeStyle;html=1;exitX=0.25;exitY=1;exitDx=0;exitDy=0;entryX=0.5;entryY=0;entryDx=0;entryDy=0;fontSize=15;fontColor=#FFFFFF;endArrow=open;endFill=0;endSize=14;" edge="1" parent="1" source="18" target="21">
                    <mxGeometry relative="1" as="geometry"/>
                </mxCell>
                <mxCell id="29" style="edgeStyle=orthogonalEdgeStyle;html=1;exitX=0.75;exitY=1;exitDx=0;exitDy=0;entryX=0.5;entryY=0;entryDx=0;entryDy=0;fontSize=15;fontColor=#FFFFFF;endArrow=open;endFill=0;endSize=14;" edge="1" parent="1" source="18" target="30">
                    <mxGeometry relative="1" as="geometry"/>
                </mxCell>
                <mxCell id="32" style="edgeStyle=orthogonalEdgeStyle;html=1;exitX=0.5;exitY=1;exitDx=0;exitDy=0;entryX=0.5;entryY=0;entryDx=0;entryDy=0;fontSize=15;fontColor=#FFFFFF;endArrow=open;endFill=0;endSize=14;" edge="1" parent="1" source="18" target="20">
                    <mxGeometry relative="1" as="geometry"/>
                </mxCell>
                <mxCell id="18" value="Paylod to be Split" style="rounded=0;whiteSpace=wrap;html=1;fontSize=15;fontColor=#000000;strokeColor=#000000;fillColor=#f0a30a;" vertex="1" parent="1">
                    <mxGeometry x="680" y="50" width="180" height="60" as="geometry"/>
                </mxCell>
                <mxCell id="19" value="" style="rounded=0;whiteSpace=wrap;html=1;fontSize=15;fontColor=#ffffff;strokeColor=#000000;fillColor=#e51400;" vertex="1" parent="1">
                    <mxGeometry x="490" y="170" width="40" height="60" as="geometry"/>
                </mxCell>
                <mxCell id="20" value="" style="rounded=0;whiteSpace=wrap;html=1;fontSize=15;fontColor=#000000;strokeColor=#000000;fillColor=#f0a30a;" vertex="1" parent="1">
                    <mxGeometry x="720" y="170" width="100" height="60" as="geometry"/>
                </mxCell>
                <mxCell id="21" value="" style="rounded=0;whiteSpace=wrap;html=1;fontSize=15;fontColor=#000000;strokeColor=#000000;fillColor=#f0a30a;" vertex="1" parent="1">
                    <mxGeometry x="530" y="170" width="100" height="60" as="geometry"/>
                </mxCell>
                <mxCell id="22" value="" style="rounded=0;whiteSpace=wrap;html=1;fontSize=15;fontColor=#ffffff;strokeColor=#000000;fillColor=#e51400;" vertex="1" parent="1">
                    <mxGeometry x="680" y="170" width="40" height="60" as="geometry"/>
                </mxCell>
                <mxCell id="26" style="edgeStyle=orthogonalEdgeStyle;html=1;exitX=0.25;exitY=0;exitDx=0;exitDy=0;entryX=0.5;entryY=1;entryDx=0;entryDy=0;fontSize=15;fontColor=#FFFFFF;endArrow=open;endFill=0;endSize=14;" edge="1" parent="1" source="25" target="19">
                    <mxGeometry relative="1" as="geometry"/>
                </mxCell>
                <mxCell id="27" style="edgeStyle=orthogonalEdgeStyle;html=1;exitX=0.5;exitY=0;exitDx=0;exitDy=0;entryX=0.5;entryY=1;entryDx=0;entryDy=0;fontSize=15;fontColor=#FFFFFF;endArrow=open;endFill=0;endSize=14;" edge="1" parent="1" source="25" target="22">
                    <mxGeometry relative="1" as="geometry"/>
                </mxCell>
                <mxCell id="33" style="edgeStyle=orthogonalEdgeStyle;html=1;exitX=0.75;exitY=0;exitDx=0;exitDy=0;entryX=0.5;entryY=1;entryDx=0;entryDy=0;fontSize=15;fontColor=#FFFFFF;endArrow=open;endFill=0;endSize=14;" edge="1" parent="1" source="25" target="31">
                    <mxGeometry relative="1" as="geometry"/>
                </mxCell>
                <mxCell id="25" value="Copy header, Update length, set fragment offset &amp;amp; Set More Fragments to 1" style="text;html=1;strokeColor=none;fillColor=none;align=center;verticalAlign=middle;whiteSpace=wrap;rounded=0;fontSize=15;fontColor=#000000;" vertex="1" parent="1">
                    <mxGeometry x="585" y="280" width="230" height="50" as="geometry"/>
                </mxCell>
                <mxCell id="30" value="" style="rounded=0;whiteSpace=wrap;html=1;fontSize=15;fontColor=#000000;strokeColor=#000000;fillColor=#f0a30a;" vertex="1" parent="1">
                    <mxGeometry x="910" y="170" width="30" height="60" as="geometry"/>
                </mxCell>
                <mxCell id="31" value="" style="rounded=0;whiteSpace=wrap;html=1;fontSize=15;fontColor=#ffffff;strokeColor=#000000;fillColor=#e51400;" vertex="1" parent="1">
                    <mxGeometry x="870" y="170" width="40" height="60" as="geometry"/>
                </mxCell>
            </root>
        </mxGraphModel>
    </diagram>
</mxfile>